<?xml version="1.0" standalone="no"?>
<!DOCTYPE svg PUBLIC "-//W3C//DTD SVG 20010904//EN"
 "http://www.w3.org/TR/2001/REC-SVG-20010904/DTD/svg10.dtd">
<svg version="1.0" xmlns="http://www.w3.org/2000/svg"
 width="260.000000pt" height="260.000000pt" viewBox="0 0 260.000000 260.000000"
 preserveAspectRatio="xMidYMid meet">
<metadata>
Created by potrace 1.11, written by Peter Selinger 2001-2013
</metadata>
<g transform="translate(0.000000,260.000000) scale(0.100000,-0.100000)"
fill="#000000" stroke="none">
<path d="M1775 2593 c-42 -9 -145 -47 -145 -53 0 -4 -11 -12 -25 -18 -65 -30
-159 -146 -216 -267 -18 -38 -33 -72 -34 -75 -1 -3 -4 -12 -8 -20 -32 -83 -51
-198 -62 -375 -2 -33 -5 -60 -5 -60 -2 0 -6 -39 -15 -155 -10 -117 -12 -144
-14 -152 0 -3 -18 -12 -38 -19 -38 -12 -38 -12 -13 -23 37 -16 40 -24 34 -116
-2 -47 -6 -159 -9 -250 -6 -208 -10 -252 -36 -390 -22 -117 -104 -297 -169
-374 -72 -84 -122 -117 -218 -144 l-72 -21 -26 27 c-27 29 -64 101 -64 125 0
20 19 33 66 46 29 8 45 19 54 38 20 42 22 53 23 108 1 64 -20 94 -91 129 -161
79 -308 -41 -288 -234 11 -100 33 -148 96 -208 25 -23 51 -42 57 -42 7 0 13
-4 13 -8 0 -5 23 -19 52 -33 63 -29 168 -31 268 -5 71 19 240 94 240 107 0 4
8 10 18 13 18 6 90 72 132 121 42 49 99 147 116 200 8 28 18 57 20 65 3 8 5
16 5 17 0 2 5 17 10 35 12 42 22 98 38 213 20 144 31 255 32 338 2 66 2 68 33
81 l31 13 -33 17 -33 17 6 132 c4 73 8 159 10 192 3 67 14 196 20 235 10 67
21 168 30 274 7 83 32 169 76 256 46 93 88 138 153 165 27 11 36 11 66 -4 58
-29 78 -44 89 -68 9 -20 8 -25 -7 -30 -72 -25 -81 -32 -93 -71 -31 -103 43
-191 163 -193 82 -1 154 38 176 96 11 30 10 113 -2 169 -14 61 -72 118 -160
157 -46 20 -198 34 -251 22z"/>
</g>
</svg>
