<?xml version="1.0" encoding="UTF-8"?>
<svg width="190" height="506" xmlns="http://www.w3.org/2000/svg">
 <defs>
  <radialGradient r="1" cy="0.544531" cx="0.523438" gradientTransform="rotate(19.241379310344826,0.5234375,0.5445312261581421) translate(0,0.0413092654326866) scale(1,0.9241379310344828)" spreadMethod="pad" id="svg_28">
   <stop offset="0" stop-opacity="0.996094" stop-color="#bf7022"/>
   <stop offset="1" stop-opacity="0.992188" stop-color="#c64001"/>
  </radialGradient>
 </defs>
 <g>
  <title>background</title>
  <rect fill="none" id="canvas_background" height="508" width="192" y="-1" x="-1"/>
 </g>
 <g>
  <title>Layer 1</title>
  <g id="Layer_1">
   <g id="svg_1">
    <path transform="rotate(-90, 94.9805, 254.732)" id="svg_3" stroke-width="0.036" stroke-miterlimit="10" stroke="#000000" fill-rule="evenodd" d="m-8.385017,168.910004l-5.867996,-3.167999c-2.052002,2.375977 -4.751999,3.707977 -8.244003,4.139984c-3.456009,0.360016 -5.147995,-0.324005 -12.564003,-1.764008c-7.632004,-1.655975 -21.635994,-5.79599 -32.436005,-6.983978c-10.943001,-1.223999 -21.922997,-1.90802 -31.967995,0.467987c-10.008003,2.304016 -19.692001,6.444 -27.503998,13.824005c-7.990974,7.451996 -14.866982,21.131989 -19.366982,30.347992c-4.5,8.96402 -6.335999,16.596008 -7.308014,23.868011c-1.044006,7.307983 -0.576996,13.644012 1.259003,19.548004c-2.231995,1.727997 -3.347992,3.815979 -3.347992,6.660004c-0.071991,2.770996 1.044006,6.011993 3.203979,9.86499c-0.971985,6.695007 0.252014,14.578003 3.81601,24.335999c3.600006,9.756012 9.684021,24.118988 17.136017,33.371002c7.271973,9.035004 16.343971,16.632996 26.387978,20.988007c9.972,4.210999 22.571999,5.436005 33.227997,4.931976c10.584,-0.610962 21.708,-5.290985 30.059998,-7.812988c8.208,-2.519989 13.751999,-6.190979 19.548004,-6.984009c5.759995,-0.862976 10.692001,-0.179993 14.940003,2.05304l5.255996,-3.313019c-1.944,-1.90799 -2.951996,-4.139008 -3.024002,-6.839996c-0.216003,-2.843994 -0.072006,-6.119019 2.520004,-9.39502c2.591995,-3.349976 6.695999,-7.235992 12.888,-10.01001c6.155991,-2.843994 17.063995,-5.145996 23.687988,-6.335999c6.480011,-1.222961 11.088013,-1.11499 14.940002,-0.503967c3.671997,0.43399 5.76001,0.86499 7.632004,3.815979c1.835999,2.953003 3.095993,7.66803 3.636002,14.14801l6.552002,3.347992c2.231995,-2.053009 4.860001,-3.491974 7.884003,-4.462982c2.87999,-1.045013 4.931992,-1.656006 10.187988,-1.262024c5.220001,0.504028 13.463013,3.16803 21.276016,3.81601c7.774994,0.395996 17.496002,0.721008 24.984001,-0.970978c7.416016,-1.90802 13.320007,-4.572021 19.223022,-9.504028c5.724976,-5.040985 11.448975,-11.484009 15.083984,-19.729004c3.528992,-8.171997 5.725006,-17.784973 6.445007,-28.97998l115.73999,-8.424011c3.958984,-0.612 8.100006,-1.187988 12.562988,-1.583984c4.430023,-0.504028 9.14502,-0.828003 14.14801,-1.116028c0.21701,0.900024 1.007996,1.476013 2.519989,1.584015c1.44101,0.108002 3.457001,-0.252014 6.193024,-0.936005c-0.576019,2.556 -0.14502,4.175995 1.294983,5.255005c1.44101,0.937988 5.437988,1.47699 7.128998,0.792999c1.584015,-0.756012 2.339996,-2.411987 2.412018,-5.112c2.411987,0 4.103973,-0.467987 5.075989,-1.26001c0.936005,-0.936005 1.042999,-1.97998 0.46701,-3.671997c2.376984,1.188019 4.067993,0.972015 5.075989,-0.791992c1.007996,-1.799988 1.800995,-7.812012 0.972992,-9.68399c-0.936005,-1.944 -3.061005,-2.484009 -6.515991,-1.764008c0.035004,-1.944 -0.395996,-3.132019 -1.44101,-3.959991c-1.079987,-0.828003 -2.664001,-1.044006 -4.751984,-0.792023c0.251984,-2.483978 -0.180023,-4.104004 -1.295013,-5.255981c-1.225006,-1.188019 -3.85199,-1.656006 -5.399994,-1.404022c-1.618988,0.216003 -3.312988,1.620026 -3.959015,2.844025c-0.685974,1.079987 -0.792999,2.59198 -0.181976,4.139984c-1.979004,-0.575989 -3.563019,-0.68399 -4.89502,-0.179993c-1.368988,0.395996 -2.483978,1.403992 -3.204987,2.880005c0.468994,-0.503998 -2.339996,-0.828003 -8.424011,-0.972015c-6.190979,-0.179993 -15.371002,-0.179993 -28.11499,0l-107.171997,0.540009c0.432007,-4.787994 -0.43399,-10.223999 -2.880981,-16.70401c-2.447021,-6.587982 -6.335999,-15.660004 -11.664001,-21.779999c-5.473022,-6.119995 -13.104004,-11.339996 -20.375,-14.291992c-7.201042,-3.024017 -14.725029,-3.81601 -22.861046,-3.492004c-8.423981,0.252014 -19.763992,3.743988 -26.386993,5.075989c-6.444,1.223999 -8.639999,2.484009 -12.419998,2.232025c-3.959991,-0.468018 -7.667999,-1.90802 -11.123993,-4.608002l-6.192001,3.959991c1.835999,3.635986 2.231995,6.768005 1.043991,9.68399c-1.259995,2.808014 -3.276001,5.723999 -8.136002,7.343994c-4.967987,1.548004 -13.571991,2.232025 -20.807999,1.90802c-7.343994,-0.468018 -16.307999,-1.90802 -22.57199,-4.608002c-6.37201,-2.880005 -12.419998,-7.559998 -14.796006,-12.096008c-2.339996,-4.605011 -2.123993,-9.644989 0.792007,-15.260986z" clip-rule="evenodd"/>
    <path transform="rotate(-90, 95.0098, 340.432)" id="svg_4" stroke-width="0.036" stroke-miterlimit="10" stroke="#000000" fill-rule="evenodd" fill="url(#svg_28)" d="m252.302521,317.21991c0.252014,-3.23999 -0.324005,-7.164001 -1.583984,-11.915985c-1.369019,-4.895996 -2.27002,-10.692017 -6.193024,-16.559998c-4.030975,-6.012024 -10.835999,-14.14801 -17.496002,-18.432007c-6.802979,-4.175995 -15.623016,-6.084015 -22.572021,-6.839996c-7.09201,-0.828003 -12.996002,0.64798 -19.222992,1.90799c-6.408997,1.152008 -12.923981,4.140015 -18.14502,4.932007c-5.219971,0.575989 -9.503998,0 -12.707977,-0.612c-3.276001,-0.64801 -5.399994,-1.511993 -6.516022,-2.880005l-2.375977,1.115997c1.151978,2.916016 1.475983,5.436005 1.115997,7.955994c-0.395996,2.376007 -0.972015,4.644012 -3.671997,6.660004c-2.951996,2.052002 -7.128021,4.608002 -13.5,5.580017c-6.55201,0.828003 -16.812004,0.899994 -24.804008,-0.324005c-8.028,-1.332001 -17.171997,-4.104004 -22.572006,-7.488007c-5.363998,-3.492004 -8.315994,-9.036011 -9.539993,-13.032013c-1.367996,-4.031982 -0.684006,-7.631989 1.763992,-10.944l-1.90799,-1.440002c-0.143997,2.268005 -2.772003,3.384003 -8.279999,3.348022c-5.580002,-0.144012 -16.560005,-2.339996 -24.480003,-3.81601c-7.848,-1.548004 -14.903999,-4.355988 -22.716003,-5.112c-8.063995,-0.864014 -16.235001,-1.583984 -24.803993,0.179993c-8.640007,1.692017 -17.388,5.076019 -26.532005,10.152008c6.084,4.716003 11.015999,10.872009 14.939995,18.467987c3.81601,7.596008 8.604004,16.740021 8.244003,26.856018c-0.395996,10.079987 -3.996002,20.772003 -10.655998,32.903992c5.687996,-3.384003 12.204002,-6.335999 20.375999,-9.395996c7.991997,-3.131989 21.276001,-7.415985 27.648003,-8.567993c6.155998,-1.188019 8.243996,-0.179993 10.152,2.052002c1.799995,2.195984 1.115997,6.372009 1.439995,10.97998c0.360001,4.5 0.576004,11.269012 0.648003,15.876007c-0.071999,4.393005 1.043999,9.107025 -0.972,10.836029c-2.160004,1.655975 -5.292,0.610992 -11.736,-0.504028c-6.659996,-1.224976 -17.531998,-4.823975 -27.18,-6.335999c-9.720001,-1.621002 -21.599998,-2.843994 -30.203995,-2.700989c-8.604004,0.182007 -15.552002,3.061005 -20.843994,3.636993c-5.291992,0.359009 -9,0.179993 -10.980011,-0.936005c-1.475983,2.699005 -1.007996,7.52301 1.115997,14.61499c2.124023,7.057007 6.696014,19.296997 11.772003,27.828003c5.003998,8.460999 10.403999,16.740021 18.287994,22.895996c7.884003,6.046997 19.224007,11.195007 28.764008,13.355042c9.395996,1.942993 18.612,0.468994 27.647995,-1.115021c9,-1.693024 19.728004,-6.300995 25.920006,-8.423981c6.011993,-2.197021 6.444,-3.637024 10.187996,-4.465027c3.671997,-0.862976 8.748001,-0.828003 11.772003,-0.468994c2.843994,0.253998 4.643997,1.044983 5.399994,2.231995l2.520004,-1.618988c-2.052002,-1.26001 -3.059998,-3.167999 -3.024002,-5.868988c-0.108002,-2.879028 -0.071991,-6.516022 3.024002,-10.332031c2.951996,-3.886993 7.524002,-8.78299 15.263992,-11.915985c7.848007,-3.167999 23.14801,-5.902008 31.17601,-6.695007c7.88401,-0.899994 12.239998,-1.47699 16.127998,1.764008c3.779999,3.276978 5.903992,8.927979 6.515991,17.496002l2.52002,2.053009c2.411987,-3.061035 5.723999,-4.824036 10.332001,-5.580017c4.571991,-0.721008 10.332001,0.503998 16.847992,1.294983c6.372986,0.721008 14.579987,2.594025 21.311981,2.846008c6.553009,0.143005 12.096008,0.287018 18.432037,-1.90799c6.372986,-2.376984 13.860992,-6.011993 19.549011,-11.735992c5.579987,-5.939026 10.690979,-15.660004 13.535004,-22.752014c2.770996,-7.019989 3.491974,-13.284973 2.700989,-19.079987l-113.509033,10.187988c1.007996,-2.80899 1.511993,-6.264008 1.90802,-10.511993c0.287994,-4.393005 0.467987,-9.68399 0,-14.76001c-0.576019,-5.003998 -1.584015,-10.044006 -3.167999,-15.119995c37.619995,0.036011 75.277008,0.108002 112.933014,0.179993z" clip-rule="evenodd"/>
    <path transform="rotate(-90, 94.5078, 349.615)" id="svg_5" stroke-width="0.036" stroke-miterlimit="10" stroke="#000000" fill-rule="evenodd" d="m88.906136,330.613464c1.440002,-0.612 2.987991,-0.936005 4.5,-0.828003c1.475998,-0.036011 3.636002,-0.575989 4.679993,1.29599c0.972,1.90802 1.008011,5.868011 1.368011,9.64801c0.360001,3.600006 0.720001,7.524017 0.647995,12.20401c-0.216003,4.714996 -0.324005,13.35498 -1.835999,15.622986c-1.62001,2.018005 -4.104004,0.938019 -7.596008,-3.23999l0.180008,-4.104004c0.972,0.324005 1.655991,0.109009 2.195999,-0.936005c0.360001,-1.152008 0.576004,-1.942993 0.647995,-5.14798c0.143997,-3.313019 0.28801,-11.33902 0,-13.96701c-0.468002,-2.627991 -1.332001,-2.988007 -2.591995,-1.368011c-0.251999,-1.97998 -0.503998,-3.671997 -0.899994,-5.220001c-0.396011,-1.619995 -0.82901,-2.807983 -1.296005,-3.959991z" clip-rule="evenodd"/>
    <path transform="rotate(-90, 130.357, 350.299)" id="svg_6" stroke-width="0.036" stroke-miterlimit="10" stroke="#000000" fill-rule="evenodd" d="m101.822342,359.923462l3.203995,2.483978c2.23201,-1.47699 3.960007,-1.835999 5.580002,-1.079987c1.512009,0.645996 3.744003,3.743988 3.636002,5.39801c-0.251999,1.620972 -2.519989,4.212982 -4.571991,4.464966c-2.087997,0.14502 -5.904007,-1.367004 -7.704002,-3.563965c-1.944,-2.340027 -4.644005,-6.695007 -3.384003,-10.008026c1.260002,-3.563995 5.652,-7.774994 11.088005,-10.11499s14.723999,-2.77301 21.203995,-3.38501c6.408005,-0.575989 12.492004,-0.035004 16.884003,-0.324005c4.21199,-0.432007 6.804001,-1.151978 8.604004,-2.159973c1.763992,-1.008026 2.556,-2.375 2.231995,-3.959015l-2.231995,-1.656006c-2.195999,0.359009 -3.708008,0.179993 -4.536011,-0.68399c-0.935989,-0.973022 -1.655991,-3.528992 -0.755997,-4.464996c0.936005,-1.042999 3.744003,-1.980011 5.796005,-1.152008c1.90799,0.792999 4.931992,3.457001 5.472,6.192993c0.431992,2.734009 -0.324005,7.270996 -2.807999,9.863007c-2.628006,2.375 -7.344009,4.031006 -12.348007,4.968994c-5.112,0.756012 -11.664001,0.143005 -17.712006,0.503998c-6.191986,0.286987 -13.751999,0.645996 -18.395996,2.051025c-4.679993,1.441986 -7.630997,3.599976 -9.251999,6.625z" clip-rule="evenodd"/>
    <path transform="rotate(-90, 54.0938, 352.135)" id="svg_7" stroke-width="0.036" stroke-miterlimit="10" stroke="#000000" fill-rule="evenodd" d="m25.558601,342.551056l3.204002,-2.484009c2.232002,1.404022 3.959999,1.764008 5.579994,1.080017c1.512009,-0.756012 3.744003,-3.85202 3.636002,-5.399994c-0.251999,-1.728027 -2.520004,-4.284027 -4.571991,-4.46402c-2.088013,-0.251984 -5.904007,1.26001 -7.70401,3.563995c-1.944,2.232025 -4.643997,6.588013 -3.383995,10.008026c1.260002,3.455994 5.652,7.703979 11.088005,10.115997c5.435989,2.231995 14.723999,2.664001 21.203995,3.384003c6.408005,0.467987 12.492004,-0.072021 16.884003,0.323975c4.21199,0.360016 6.804001,1.080017 8.603989,2.160004c1.764008,0.972015 2.556015,2.304016 2.23201,3.996002l-2.23201,1.656006c-2.195999,-0.467987 -3.707993,-0.252014 -4.535995,0.64801c-0.936005,0.863983 -1.655991,3.455994 -0.755997,4.463989c0.936005,0.972015 3.744003,1.872009 5.796005,1.152008c1.90799,-0.899994 4.931992,-3.563995 5.472,-6.192017c0.431992,-2.807983 -0.324005,-7.343994 -2.807999,-9.863983c-2.628006,-2.484009 -7.344009,-4.140015 -12.348007,-4.968018c-5.112,-0.828003 -11.664001,-0.251984 -17.712006,-0.503998c-6.192001,-0.395996 -13.751999,-0.755981 -18.395996,-2.052002c-4.679993,-1.475983 -7.630997,-3.635986 -9.251999,-6.623993z" clip-rule="evenodd"/>
    <path transform="rotate(-90, 78.3867, 236.203)" id="svg_8" stroke-width="0.036" stroke-miterlimit="10" stroke="#000000" fill-rule="evenodd" d="m-92.216072,238.794464l59.723999,-4.680023l281.484047,-1.97998l-0.21701,2.231995l-281.267021,1.475983l-59.723999,4.428009l0,-1.475983l-0.000015,0z" clip-rule="evenodd"/>
    <path transform="rotate(-90, 78.3867, 236.328)" id="svg_9" stroke-width="0.036" stroke-miterlimit="10" stroke="#000000" fill-rule="evenodd" fill="#FFFFFF" d="m-91.551071,239.135437l58.463997,-4.463989l40.428009,-0.216003l241.20002,-1.835999l-0.071991,1.476013l-74.160034,0.251984l-207.323006,1.26001l-58.751991,4.428009l0.214996,-0.900024z" clip-rule="evenodd"/>
    <path transform="rotate(-90, 100.164, 236.381)" id="svg_10" stroke-width="0.036" stroke-miterlimit="10" stroke="#000000" fill-rule="evenodd" d="m-70.691994,247.253845l59.975998,1.080017l281.736015,-22.211029l-0.144989,-1.691986l-281.736015,22.177002l-59.76001,-0.503998l-0.070999,1.149994z" clip-rule="evenodd"/>
    <path transform="rotate(-90, 100.166, 236.418)" id="svg_11" stroke-width="0.036" stroke-miterlimit="10" stroke="#000000" fill-rule="evenodd" fill="#FFFFFF" d="m-70.329926,246.96701l58.896004,1.042999l40.319992,-3.167999l241.776009,-18.972015l-0.144989,-1.044006l-75.238007,6.156006l-206.71302,16.09201l-58.68,-0.576019l-0.215988,0.469025z" clip-rule="evenodd"/>
    <path transform="rotate(-90, 92.3906, 236.438)" id="svg_12" stroke-width="0.036" stroke-miterlimit="10" stroke="#000000" fill-rule="evenodd" d="m-77.43779,243.780914l59.976006,1.080017l279.684013,-15.192017l-0.071991,-1.656006l-279.75605,15.120026l-59.759995,-0.504028l-0.071983,1.152008z" clip-rule="evenodd"/>
    <path transform="rotate(-90, 92.4238, 236.471)" id="svg_13" stroke-width="0.036" stroke-miterlimit="10" stroke="#000000" fill-rule="evenodd" fill="#FFFFFF" d="m-77.011383,243.419922l58.896004,1.080017l279.972008,-15.119019l-0.14502,-0.936005l-279.862984,15.084015l-58.68,-0.576019l-0.180008,0.46701z" clip-rule="evenodd"/>
    <path transform="rotate(-90, 84.957, 236.166)" id="svg_14" stroke-width="0.036" stroke-miterlimit="10" stroke="#000000" fill-rule="evenodd" d="m-84.673866,241.871033l59.759995,-0.68399l279.504021,-9.144012l0.035004,-1.584015l-279.684013,9.036011l-59.651993,1.26001l0.036987,1.115997z" clip-rule="evenodd"/>
    <path transform="rotate(-90, 84.9922, 236.223)" id="svg_15" stroke-width="0.036" stroke-miterlimit="10" stroke="#000000" fill-rule="evenodd" fill="#FFFFFF" d="m-84.262978,241.640503l58.680008,-0.791992l279.829033,-9.179993l0,-0.864014l-279.829033,9.108002l-58.644005,1.080017l-0.036003,0.64798z" clip-rule="evenodd"/>
    <path transform="rotate(-90, 81.1895, 407.354)" id="svg_16" stroke-width="0.036" stroke-miterlimit="10" stroke="#000000" fill-rule="evenodd" fill="#FFFFFF" d="m85.949066,405.774109c-0.576004,0.036011 -1.296005,0.036011 -2.160004,0.143982c-0.935997,0.108002 -2.015999,0.180023 -3.239998,0.360016c-0.468002,-0.395996 -0.972,-0.540009 -1.368004,-0.432007c-0.467995,0.071991 -0.900002,0.468018 -1.152,0.899994c-0.287994,0.360016 -0.863998,0.756012 -0.612,1.332001c0.108002,0.468018 0.576004,1.008026 1.403999,1.620026c-0.467995,-0.036011 -1.007996,-0.360016 -1.332001,-0.684021c-0.467995,-0.503998 -1.043999,-1.044006 -1.043999,-1.619995c-0.107994,-0.64801 0.612,-1.368011 1.043999,-1.764008c0.432007,-0.503998 0.900002,-0.575989 1.548004,-0.612c0.503998,-0.071991 1.223999,0.287994 1.872002,0.684021c1.655998,0 3.348,0.03598 5.040001,0.071991z" clip-rule="evenodd"/>
    <path transform="rotate(-90, 89.5605, 407.188)" id="svg_17" stroke-width="0.036" stroke-miterlimit="10" stroke="#000000" fill-rule="evenodd" fill="#FFFFFF" d="m94.298141,405.588989c-0.576004,0 -1.295998,0.108002 -2.160004,0.179993c-0.935997,0.108002 -2.015999,0.180023 -3.239998,0.360016c-0.503998,-0.432007 -0.900002,-0.540009 -1.332001,-0.467987c-0.431999,0.107971 -0.972,0.359985 -1.187996,0.899994c-0.288002,0.359985 -0.864006,0.755981 -0.612,1.332001c0.107994,0.467987 0.575996,1.007996 1.403999,1.619995c-0.468002,-0.071991 -1.008003,-0.287994 -1.332001,-0.64801c-0.468002,-0.395996 -1.080002,-1.115997 -1.008003,-1.619995c-0.071999,-0.612 0.540001,-1.440002 1.008003,-1.799988c0.395996,-0.432007 0.972,-0.576019 1.584,-0.576019c0.540001,-0.03598 1.152,0.180023 1.835999,0.64801c1.655998,0 3.348,0.036011 5.040001,0.071991z" clip-rule="evenodd"/>
    <path transform="rotate(-90, 98.4004, 407.893)" id="svg_18" stroke-width="0.036" stroke-miterlimit="10" stroke="#000000" fill-rule="evenodd" fill="#FFFFFF" d="m103.195061,406.88623c-0.503998,-0.071991 -1.259995,-0.036987 -2.124001,-0.036987c-0.935997,0 -1.979996,0.036987 -3.276001,0.109009c-0.467995,-0.434021 -0.899994,-0.613007 -1.295998,-0.541016c-0.503998,0.036987 -0.972,0.395996 -1.260002,0.792999c-0.323997,0.287018 -0.935997,0.756012 -0.719994,1.26001c0.071999,0.503998 0.503998,1.042999 1.295998,1.764008c-0.503998,-0.180023 -0.935997,-0.396027 -1.295998,-0.79303c-0.431999,-0.539001 -1.008003,-1.149994 -0.900002,-1.690979c0,-0.684021 0.720001,-1.295013 1.187996,-1.69101c0.396004,-0.324005 0.972,-0.612 1.584,-0.468994c0.540001,0.106995 1.188004,0.251984 1.800003,0.828003c1.656998,0.143982 3.311996,0.289001 5.003998,0.467987z" clip-rule="evenodd"/>
    <path transform="rotate(-90, 109.193, 408.68)" id="svg_19" stroke-width="0.036" stroke-miterlimit="10" stroke="#000000" fill-rule="evenodd" fill="#FFFFFF" d="m114.019142,408.617371c-0.503998,-0.182007 -1.260002,-0.144989 -2.124001,-0.289001c-0.935997,-0.144989 -1.980003,-0.251984 -3.276001,-0.324005c-0.431999,-0.538971 -0.792,-0.64798 -1.223999,-0.718994c-0.468002,-0.036987 -1.008003,0.214996 -1.332001,0.610992c-0.360001,0.252014 -0.972,0.64801 -0.863998,1.188019c0.071999,0.468994 0.288002,1.152008 1.043999,1.90799c-0.468002,-0.179993 -0.900002,-0.539001 -1.152,-0.936005c-0.360001,-0.575989 -0.863998,-1.225006 -0.683998,-1.800995c0.108002,-0.64801 0.792,-1.26001 1.367996,-1.546997c0.431999,-0.252014 1.080002,-0.468994 1.656006,-0.252014c0.467995,0.180023 1.151993,0.39502 1.655998,1.04303c1.619995,0.359985 3.277,0.720978 4.931999,1.117981z" clip-rule="evenodd"/>
    <path transform="rotate(-90, 56.0254, 69.666)" id="svg_20" stroke-width="0.036" stroke-miterlimit="10" stroke="#000000" fill-rule="evenodd" d="m52.642517,85.798683l-0.109009,-12.348022c-0.718994,-0.431976 -0.89798,-0.899994 -0.936005,-1.259979c0.072021,-0.360016 0.289001,-0.756012 1.045013,-1.044006c0.214996,-0.936005 -0.071991,-1.548004 -0.468994,-1.980011c-0.576019,-0.503998 -1.584015,-0.108002 -2.447021,-0.612c-1.007996,-0.575989 -2.304993,-1.548004 -2.77298,-2.772003c-0.576019,-1.367981 -0.863007,-3.276001 0.109009,-5.14798c1.007996,-2.016022 3.743988,-5.040009 5.83197,-6.156006c1.979004,-1.187988 3.779022,-1.152008 5.795013,-0.467987c1.835999,0.719971 4.393005,2.556 5.579987,4.53598c1.080017,1.764008 1.764008,4.716003 1.080017,6.515991c-0.863007,1.764008 -4.679993,3.132019 -5.61499,4.104004c-0.900024,0.828003 -0.900024,1.296021 0.142975,1.26001c0.252014,0.179993 0.361023,0.540009 0.324005,0.936005c-0.106995,0.359985 -0.324005,0.863983 -0.790985,1.511993l0.106995,12.096008c-2.268005,0.251984 -4.571991,0.540009 -6.875,0.828003z" clip-rule="evenodd"/>
    <path transform="rotate(-90, 55.7617, 50.7481)" id="svg_21" stroke-width="0.036" stroke-miterlimit="10" stroke="#000000" fill-rule="evenodd" d="m52.540863,66.568367l0,-14.220001c0.610992,-0.64798 0.863007,-1.223999 0.610992,-1.727997c-0.289001,-0.575989 -1.079987,-1.079987 -2.231995,-1.511993c1.045013,-1.476013 1.69101,-3.167999 2.088013,-5.364014c0.289001,-2.159973 -0.503998,-6.155975 0,-7.559998c0.431976,-1.619995 1.656006,-1.475983 2.700989,-1.511993c0.936005,-0.179993 2.412018,-0.071991 2.916016,1.152008c0.214996,1.26001 -0.865021,3.81601 -0.613007,6.156006c0.289001,2.195984 1.152008,4.571991 2.59198,7.127991c-0.645996,0.324005 -1.042999,0.756012 -1.187988,1.152008s-0.106995,0.863983 0.252014,1.403992l0,14.652008l-6.299011,0.575989l-0.828003,-0.324005z" clip-rule="evenodd"/>
    <path transform="rotate(-90, 106.188, 59.9434)" id="svg_22" stroke-width="0.036" stroke-miterlimit="10" stroke="#000000" fill-rule="evenodd" d="m102.980957,44.165901l0,14.221008c0.64801,0.611023 0.792999,1.187988 0.575989,1.72699c-0.323975,0.541016 -1.007996,1.045013 -2.194977,1.512024c1.044983,1.440979 1.690979,3.132996 2.087982,5.36499c0.287018,2.050995 -0.503998,6.046997 0,7.55899c0.324005,1.514008 1.764008,1.369019 2.664001,1.514008c0.936005,0.072021 2.412018,-0.036987 2.916016,-1.152008c0.324005,-1.368988 -0.936005,-3.923981 -0.576019,-6.155975c0.289001,-2.232025 1.188019,-4.607025 2.557007,-7.129028c-0.613007,-0.358978 -1.044983,-0.790985 -1.152008,-1.149994c-0.179993,-0.43399 -0.106995,-0.899994 0.21701,-1.403992l0,-14.654999l-6.265991,-0.612l-0.82901,0.359985z" clip-rule="evenodd"/>
    <path transform="rotate(-90, 104.564, 44.1758)" id="svg_23" stroke-width="0.036" stroke-miterlimit="10" stroke="#000000" fill-rule="evenodd" d="m101.177338,28.07737l-0.106995,12.34903c-0.718994,0.394989 -0.900024,0.862976 -0.936005,1.259979c0.071991,0.395996 0.286987,0.756012 1.042999,1.079987c0.21701,0.900024 -0.070007,1.512024 -0.46701,1.980011c-0.575989,0.432007 -1.583984,-0.071991 -2.449005,0.574005c-1.007996,0.468994 -2.302979,1.44101 -2.770996,2.77301c-0.575989,1.26001 -0.863007,3.203003 0.109009,5.14801c1.007996,1.905975 3.742004,4.931976 5.832001,6.153992c1.979004,1.117004 3.778992,1.044983 5.795013,0.468994c1.90799,-0.828003 4.427979,-2.664001 5.61499,-4.535004c1.152008,-1.873016 1.692993,-4.789001 1.044983,-6.518005c-0.755981,-1.798981 -4.751984,-3.203003 -5.579987,-4.06601c-0.972992,-0.937988 -0.936005,-1.368988 0.106995,-1.296997c0.324005,-0.21698 0.395996,-0.575989 0.360992,-0.935974c-0.071991,-0.432007 -0.395996,-0.936005 -0.828003,-1.512024l0.107025,-12.096985c-2.265991,-0.25 -4.571014,-0.538025 -6.876007,-0.826019z" clip-rule="evenodd"/>
   </g>
  </g>
 </g>
</svg>
