<?xml version="1.0" encoding="utf-8"?>
<!-- Generated by IcoMoon.io -->
<!DOCTYPE svg PUBLIC "-//W3C//DTD SVG 1.1//EN" "http://www.w3.org/Graphics/SVG/1.1/DTD/svg11.dtd">
<svg version="1.1" xmlns="http://www.w3.org/2000/svg" xmlns:xlink="http://www.w3.org/1999/xlink" width="410" height="1024" viewBox="0 0 410 1024">
<path fill="#000" d="M392.239 858.607c-3.358-29.29-13.377-45.189-16.393-52.5-9.18-22.235-11.964-42.31-6.715-53.195l-6.662-9.503c-3.917 3.171-8.278 5.133-12.955 5.604-0.706 0.072-1.414 0.112-2.117 0.111-21.65 0.066-41.847-31.825-45.697-72.956-3.964-42.456 10.999-78.694 33.437-80.92 0.678-0.070 1.37-0.097 2.051-0.106 2.717-0.010 5.402 0.497 8.037 1.447l2.617-6.372c-0.573-0.22-1.157-0.415-1.692-0.723-11.441-6.614-10.762-30.11 0.194-56.986 1.042-2.558 4.19-12.076 5.853-20.562 1.52-7.709 1.611-14.561 1.611-14.561 0.18-60.517-54.242-110.459-125.352-118.912l-5.537-216.573 0.013-3.638 44.034-0.128c0.865 7.117 3.153 12.916 5.855 14.022 0 0 0 0 3.58-0.009 11.202-0.029 20.308-9.138 20.34-20.34 0.038-11.205-9.012-20.256-20.217-20.217-3.584 0.003-3.584 0.003-3.584 0.003-2.707 1.122-5.027 6.936-5.941 14.059l-44.036 0.134 0.149-50.691 44.034-0.135c0.864 7.122 3.154 12.924 5.854 14.020 0 0 0 0 3.588-0.011 11.199-0.032 20.304-9.136 20.339-20.339 0.033-11.198-9.018-20.249-20.218-20.218-3.587 0.013-3.587 0.013-3.587 0.013-2.707 1.115-5.027 6.927-5.942 14.059l-44.033 0.13 0.104-34.076 4.081-0.017 6.297-20.227-11.291 0.034-5.175-28.311-12.649 1.391-12.64-1.322-5.345 28.346-11.294 0.031 6.178 20.198 4.084-0.020-0.028 9.121-44.031 0.132c-0.864-7.122-3.156-12.919-5.854-14.020 0 0 0 0-3.588 0.011-11.201 0.036-20.305 9.141-20.342 20.342-0.033 11.198 9.016 20.247 20.217 20.217 3.591-0.014 3.591-0.014 3.591-0.014 2.7-1.115 5.025-6.926 5.938-14.055l44.031-0.132-0.15 50.689-44.034 0.132c-0.862-7.12-3.159-12.923-5.857-14.023 0 0 0 0-3.585 0.014-11.201 0.030-20.308 9.138-20.339 20.339-0.035 11.202 9.018 20.256 20.218 20.218 3.581-0.007 3.581-0.007 3.581-0.007 2.706-1.121 5.028-6.929 5.94-14.057l44.036-0.134-0.089 28.599-6.859 217.501c-68.081 10.96-119.628 60.021-119.804 118.761 0 0 0.049 6.861 1.517 14.55 1.617 8.482 4.7 17.982 5.724 20.521 10.814 26.813 11.346 50.304-0.137 56.99-0.533 0.313-1.118 0.512-1.694 0.731l2.579 6.36c2.641-0.964 5.326-1.491 8.045-1.498 0.681-0.002 1.371 0.036 2.053 0.097 22.419 2.089 37.167 38.24 32.947 80.718-4.089 41.155-24.48 73.17-46.131 73.231-0.706 0-1.405-0.025-2.119-0.097-4.683-0.436-9.018-2.377-12.92-5.528l-6.72 9.545c5.182 10.851 2.268 30.943-7.032 53.238-3.057 7.328-13.168 23.295-16.709 52.599-3.201 26.527-0.171 57.711 9.469 77.274 25.032 50.759 94.794 87.233 177.214 86.983 82.422-0.245 152.409-37.133 177.74-88.048 9.753-19.616 12.967-50.819 9.924-77.326zM214.998 788.208l-1.776-385.985c1.534 0.18 3.064 0.379 4.512 0.57l6.010 385.386-8.747 0.029zM180.569 788.311l8.307-384.791c1.55-0.278 3.242-0.57 4.936-0.847l-4.083 385.61-9.16 0.028zM190.43 997.994c-63.897-3.586-120.313-32.302-140.099-72.426-6.917-14.026-9.802-39.903-7.025-62.924 2.386-19.775 8.2-31.73 12.056-39.632 1.042-2.13 2.018-4.143 2.851-6.135 5.040-12.083 9.916-26.978 11.252-41.724 33.225-4.408 60.303-43.465 65.528-96.042 2.446-24.616-0.481-48.651-8.24-67.68-6.389-15.634-15.935-27.404-27.443-34.26 1.568-14.989-1.646-33.22-9.796-53.46-0.736-1.882-3.178-9.609-4.363-15.847-0.914-4.798-1.051-9.327-1.061-9.897 0.255-44.589 40.914-83.513 96.932-92.987l-8.278 383.349-4.441 0.013-0.017 5.157c14.141 33.797 22.524 76.405 22.389 122.772l-0.247 81.724zM197.552 788.261l4.095-386.662c0.731-0.072 1.404-0.125 1.95-0.137 0.504-0.007 1.134 0.006 1.799 0.036l1.778 386.726-9.622 0.035zM359.403 924.641c-20.613 41.438-79.992 71.005-146.223 73.546l0.247-81.982c0.136-46.367 8.779-89.023 23.124-122.913l0.015-5.148-4.996 0.015-5.996-384.24c58.572 7.078 102.625 47.114 102.647 93.298-0.020 0.757-0.195 5.208-1.129 9.93-1.226 6.258-3.719 13.985-4.425 15.802-8.29 20.32-11.62 38.602-10.15 53.589-11.556 6.926-21.172 18.75-27.651 34.427-7.87 19.072-10.949 43.124-8.639 67.737 4.913 52.539 31.753 91.434 64.952 95.643 1.251 14.737 6.031 29.601 11.003 41.658 0.825 1.987 1.787 3.993 2.813 6.12 3.801 7.878 9.549 19.788 11.818 39.558 2.635 23.004-0.409 48.896-7.409 62.965z"></path>
</svg>
