<?xml version="1.0" encoding="utf-8"?>
<!-- Generated by IcoMoon.io -->
<!DOCTYPE svg PUBLIC "-//W3C//DTD SVG 1.1//EN" "http://www.w3.org/Graphics/SVG/1.1/DTD/svg11.dtd">
<svg version="1.1" xmlns="http://www.w3.org/2000/svg" xmlns:xlink="http://www.w3.org/1999/xlink" width="410" height="1024" viewBox="0 0 410 1024">
<path fill="#000" d="M392.239 858.607c-3.358-29.29-13.377-45.189-16.393-52.5-9.18-22.235-11.964-42.31-6.715-53.195l-6.662-9.503c-3.917 3.171-8.278 5.133-12.955 5.604-0.706 0.072-1.414 0.112-2.117 0.111-21.65 0.066-41.847-31.825-45.697-72.956-3.964-42.456 10.999-78.694 33.437-80.92 0.678-0.070 1.37-0.097 2.051-0.106 2.717-0.010 5.402 0.497 8.037 1.447l2.617-6.372c-0.573-0.22-1.157-0.415-1.692-0.723-11.441-6.614-10.762-30.11 0.194-56.986 1.042-2.558 4.19-12.076 5.853-20.562 1.52-7.709 1.611-14.561 1.611-14.561 0.18-60.517-54.242-110.459-125.352-118.912l-5.537-216.573 0.013-3.638 44.034-0.128c0.865 7.117 3.153 12.916 5.855 14.022 0 0 0 0 3.58-0.009 11.202-0.029 20.308-9.138 20.34-20.34 0.038-11.205-9.012-20.256-20.217-20.217-3.584 0.003-3.584 0.003-3.584 0.003-2.707 1.122-5.027 6.936-5.941 14.059l-44.036 0.134 0.149-50.691 44.034-0.135c0.864 7.122 3.154 12.924 5.854 14.020 0 0 0 0 3.588-0.011 11.199-0.032 20.304-9.136 20.339-20.339 0.033-11.198-9.018-20.249-20.218-20.218-3.587 0.013-3.587 0.013-3.587 0.013-2.707 1.115-5.027 6.927-5.942 14.059l-44.033 0.13 0.104-34.076 4.081-0.017 6.297-20.227-11.291 0.034-5.175-28.311-12.649 1.391-12.64-1.322-5.345 28.346-11.294 0.031 6.178 20.198 4.084-0.020-0.028 9.121-44.031 0.132c-0.864-7.122-3.156-12.919-5.854-14.020 0 0 0 0-3.588 0.011-11.201 0.036-20.305 9.141-20.342 20.342-0.033 11.198 9.016 20.247 20.217 20.217 3.591-0.014 3.591-0.014 3.591-0.014 2.7-1.115 5.025-6.926 5.938-14.055l44.031-0.132-0.15 50.689-44.034 0.132c-0.862-7.12-3.159-12.923-5.857-14.023 0 0 0 0-3.585 0.014-11.201 0.030-20.308 9.138-20.339 20.339-0.035 11.202 9.018 20.256 20.218 20.218 3.581-0.007 3.581-0.007 3.581-0.007 2.706-1.121 5.028-6.929 5.94-14.057l44.036-0.134-0.089 28.599-6.859 217.501c-68.081 10.96-119.628 60.021-119.804 118.761 0 0 0.049 6.861 1.517 14.55 1.617 8.482 4.7 17.982 5.724 20.521 10.814 26.813 11.346 50.304-0.137 56.99-0.533 0.313-1.118 0.512-1.694 0.731l2.579 6.36c2.641-0.964 5.326-1.491 8.045-1.498 0.681-0.002 1.371 0.036 2.053 0.097 22.419 2.089 37.167 38.24 32.947 80.718-4.089 41.155-24.48 73.17-46.131 73.231-0.706 0-1.405-0.025-2.119-0.097-4.683-0.436-9.018-2.377-12.92-5.528l-6.72 9.545c5.182 10.851 2.268 30.943-7.032 53.238-3.057 7.328-13.168 23.295-16.709 52.599-3.201 26.527-0.171 57.711 9.469 77.274 25.032 50.759 94.794 87.233 177.214 86.983 82.422-0.245 152.409-37.133 177.74-88.048 9.753-19.616 12.967-50.819 9.924-77.326v-0.008zM214.998 788.208l-1.776-385.985c1.534 0.18 3.064 0.379 4.512 0.57l6.010 385.386-8.746 0.029zM180.569 788.311l8.307-384.791c1.55-0.278 3.242-0.57 4.936-0.847l-4.083 385.61-9.16 0.028zM190.43 997.994c-63.897-3.586-120.313-32.302-140.099-72.426-6.917-14.026-9.802-39.903-7.025-62.924 2.386-19.775 8.2-31.73 12.056-39.632 1.042-2.13 2.018-4.143 2.851-6.135 5.040-12.083 9.916-26.978 11.252-41.724 33.225-4.408 60.303-43.465 65.528-96.042 2.446-24.616-0.481-48.651-8.24-67.68-6.389-15.634-15.935-27.404-27.443-34.26 1.568-14.989-1.646-33.22-9.796-53.46-0.736-1.882-3.178-9.609-4.363-15.847-0.914-4.798-1.051-9.327-1.061-9.897 0.255-44.589 40.914-83.513 96.932-92.987l-8.278 383.349-4.441 0.013-0.017 5.157c14.141 33.797 22.524 76.405 22.389 122.772l-0.247 81.724 0.002-0.001zM197.552 788.261l4.095-386.662c0.731-0.072 1.404-0.125 1.95-0.137 0.504-0.007 1.134 0.006 1.799 0.036l1.778 386.726-9.622 0.037zM359.403 924.641c-20.613 41.438-79.992 71.005-146.223 73.546l0.247-81.982c0.136-46.367 8.779-89.023 23.124-122.913l0.015-5.148-4.996 0.015-5.996-384.24c58.572 7.078 102.625 47.114 102.647 93.298-0.020 0.757-0.195 5.208-1.129 9.93-1.226 6.258-3.719 13.985-4.425 15.802-8.29 20.32-11.62 38.602-10.15 53.589-11.556 6.926-21.172 18.75-27.651 34.427-7.87 19.072-10.949 43.124-8.639 67.737 4.913 52.539 31.753 91.434 64.952 95.643 1.251 14.737 6.031 29.601 11.003 41.658 0.825 1.987 1.787 3.993 2.813 6.12 3.801 7.878 9.549 19.788 11.818 39.558 2.635 23.004-0.409 48.896-7.409 62.965l-0.001-0.005z"></path>
<path fill="#000" d="M156.842 677.46c0 0 6.299 2.502 5.91 5.14-0.135 0.912-1.678 0.63-2.463 1.062-0.577 0.318-1.209 0.605-1.636 1.118-0.612 0.735-1.136 1.671-1.188 2.641-0.043 0.81-0.114 1.929 0.035 2.631 0.19 0.894 0.88 1.982 1.454 2.677 0.681 0.825 1.882 1.664 2.804 2.178 1.055 0.588 2.506 0.549 3.696 0.679 1.232 0.134 2.403-0.304 3.563-0.757 1.365-0.533 2.785-1.271 3.67-2.474 0.692-0.94 0.907-2.206 1.042-3.38 0.178-1.537 0.007-3.121-0.317-4.633-0.32-1.494-0.737-3.035-1.585-4.286-0.935-1.379-2.312-2.411-3.692-3.299-1.348-0.868-2.853-1.493-4.386-1.919s-3.136-0.592-4.723-0.615c-1.852-0.027-3.727 0.124-5.532 0.558-1.817 0.437-3.581 1.153-5.241 2.038-1.538 0.82-3.030 1.79-4.31 2.996-1.851 1.744-3.357 3.867-4.755 6.018-1.030 1.584-1.882 3.293-2.648 5.031-1.178 2.674-2.297 5.407-2.978 8.26-1.065 4.465-1.226 9.113-1.688 13.688-0.598 5.917-1.402 17.788-1.402 17.788l-3.333 1.17 2.658 1.439c0 0-0.428 9.902-0.643 14.853-0.192 4.433 0.040 8.907-0.577 13.298-0.446 3.174-0.844 6.407-1.618 9.512-0.823 3.3-2.247 6.659-3.714 9.804-1.023 2.195-2.361 4.257-3.928 6.073-1.585 1.838-3.384 3.548-5.444 4.778-1.656 0.988-3.558 1.461-5.398 1.994-0.817 0.237-2.494 0.53-2.494 0.53s-3.593-4.085-3.833-6.66c-0.063-0.674-0.112-1.52 0.349-2 0.934-0.973 3.038-0.43 4.045-1.321 1.020-0.904 1.581-2.314 1.954-3.651 0.37-1.325 0.48-2.778 0.227-4.132-0.176-0.94-0.593-1.861-1.179-2.6-0.665-0.839-1.608-1.418-2.532-1.928-1.152-0.636-2.391-1.193-3.685-1.375-1.138-0.161-2.342-0.097-3.436 0.267-1.57 0.523-3.115 1.404-4.226 2.67-1.153 1.314-1.875 3.059-2.249 4.792-0.395 1.825-0.185 3.759 0.064 5.611 0.208 1.548 0.552 3.107 1.187 4.525 0.6 1.339 1.441 2.579 2.424 3.646 1.092 1.185 2.431 2.114 3.777 2.973 1.693 1.081 3.417 2.271 5.358 2.715 1.709 0.39 3.515 0.135 5.248-0.113 3.703-0.531 7.5-1.83 10.905-3.433 2.345-1.104 4.848-2.712 6.538-4.124 1.442-1.204 2.653-2.359 3.851-3.823 1.632-1.994 3.096-4.217 4.368-6.475 0.671-1.191 1.191-2.44 1.64-3.739 0.917-2.65 1.654-5.542 2.229-8.294 0.598-2.865 0.846-5.661 1.287-8.556 0.607-3.994 1.009-8.023 1.266-12.057 0.137-2.138 0.147-6.426 0.147-6.426l2.934-0.931-3.087-1.733c0 0 0.46-12.886 0.954-19.311 0.393-5.109 1.060-10.191 1.596-15.286 0.31-2.943 0.318-5.938 0.936-8.828 0.542-2.532 1.368-5.012 2.411-7.369 0.845-1.911 1.769-3.838 3.088-5.433 1.088-1.315 2.427-2.437 3.881-3.29 0.746-0.438 2.421-0.899 2.421-0.899v0z"></path>
<path fill="#000" d="M247.952 678.403c0 0-6.223 2.462-5.838 5.057 0.133 0.898 1.658 0.62 2.433 1.045 0.57 0.313 1.194 0.595 1.616 1.1 0.605 0.723 1.122 1.644 1.174 2.598 0.043 0.797 0.113 1.898-0.035 2.589-0.188 0.88-0.869 1.95-1.437 2.634-0.673 0.811-1.859 1.637-2.77 2.143-1.042 0.578-2.475 0.54-3.652 0.668-1.217 0.132-2.374-0.299-3.519-0.744-1.349-0.524-2.751-1.251-3.626-2.435-0.684-0.925-0.896-2.17-1.030-3.326-0.176-1.512-0.006-3.071 0.313-4.558 0.316-1.47 0.728-2.986 1.566-4.217 0.923-1.356 2.284-2.373 3.647-3.246 1.332-0.854 2.819-1.469 4.333-1.888s3.098-0.583 4.666-0.605c1.83-0.026 3.682 0.122 5.464 0.549 1.795 0.43 3.538 1.135 5.177 2.005 1.52 0.806 2.993 1.761 4.258 2.947 1.828 1.715 3.316 3.805 4.697 5.921 1.017 1.559 1.859 3.24 2.616 4.95 1.164 2.63 2.269 5.319 2.942 8.127 1.052 4.393 1.211 8.966 1.668 13.467 0.59 5.821 1.385 17.501 1.385 17.501l3.293 1.151-2.626 1.416c0 0 0.423 9.742 0.635 14.613 0.19 4.361-0.040 8.763 0.57 13.083 0.441 3.123 0.834 6.303 1.599 9.359 0.813 3.247 2.22 6.552 3.669 9.645 1.011 2.159 2.332 4.188 3.88 5.975 1.566 1.808 3.343 3.491 5.378 4.701 1.636 0.972 3.515 1.438 5.332 1.962 0.807 0.233 2.464 0.521 2.464 0.521s3.55-4.019 3.787-6.552c0.062-0.664 0.111-1.496-0.345-1.968-0.923-0.958-3.002-0.423-3.996-1.3-1.008-0.889-1.562-2.277-1.931-3.592-0.365-1.304-0.474-2.733-0.224-4.065 0.174-0.925 0.585-1.831 1.165-2.558 0.657-0.825 1.588-1.395 2.501-1.897 1.138-0.626 2.362-1.173 3.64-1.352 1.124-0.158 2.314-0.096 3.394 0.263 1.551 0.515 3.078 1.382 4.175 2.627 1.139 1.293 1.852 3.009 2.222 4.715 0.39 1.796 0.183 3.698-0.063 5.521-0.206 1.523-0.546 3.057-1.172 4.452-0.592 1.318-1.424 2.537-2.395 3.587-1.079 1.166-2.401 2.080-3.731 2.925-1.672 1.063-3.376 2.235-5.294 2.671-1.688 0.384-3.472 0.133-5.184-0.112-3.658-0.522-7.409-1.8-10.773-3.377-2.317-1.086-4.789-2.668-6.459-4.057-1.424-1.185-2.62-2.32-3.804-3.761-1.612-1.962-3.058-4.149-4.315-6.371-0.663-1.172-1.176-2.401-1.62-3.678-0.906-2.608-1.634-5.452-2.202-8.16-0.591-2.818-0.836-5.57-1.271-8.418-0.6-3.929-0.997-7.894-1.251-11.863-0.135-2.104-0.145-6.323-0.145-6.323l-2.899-0.916 3.050-1.705c0 0-0.454-12.678-0.942-18.999-0.388-5.027-1.047-10.027-1.577-15.040-0.306-2.896-0.314-5.842-0.925-8.686-0.535-2.492-1.352-4.931-2.382-7.251-0.835-1.88-1.747-3.776-3.051-5.345-1.075-1.294-2.398-2.398-3.834-3.237-0.737-0.431-2.392-0.885-2.392-0.885v0z"></path>
</svg>
