<?xml version="1.0" encoding="utf-8"?>
<!DOCTYPE svg PUBLIC "-//W3C//DTD SVG 1.1//EN" "http://www.w3.org/Graphics/SVG/1.1/DTD/svg11.dtd">
<svg version="1.1" xmlns="http://www.w3.org/2000/svg" xmlns:xlink="http://www.w3.org/1999/xlink" width="410" height="1024" >
 <defs>
  <radialGradient gradientTransform="translate(0,0.1020635744621014) scale(1,0.8689655172413793)" r="0.501258" cy="0.778906" cx="0.78125" spreadMethod="pad" id="svg_7">
   <stop offset="0" stop-opacity="0.992188" stop-color="#e59354"/>
   <stop offset="1" stop-opacity="0.996094" stop-color="#b54812"/>
  </radialGradient>
 </defs>
 <g>
  <rect fill="none" id="canvas_background" height="402" width="582" y="-1" x="-1"/>
 </g>
 <g>
  <path id="svg_1" d="m72.406998,513.140991c0,1.111023 1.111,-48.889008 0.926003,-49.808014c0.184998,0.919006 24.629997,-32.414001 24.445,-33.332977c0.184998,0.918976 17.962997,-13.526001 17.778,-14.444c0.184998,0.917999 35.740005,-17.971008 35.554993,-18.889008c0.185013,0.917999 47.963013,-6.860016 47.778015,-7.778015c0.184998,0.917999 45.740997,7.585022 45.556,6.667023c0.184998,0.917999 49.074005,25.362976 48.888,24.444c0.186005,0.918976 33.518982,33.140991 33.333984,32.221985c0.184998,0.919006 11.296021,42.029999 11.111023,41.110992c0.184998,0.919006 -9.815002,57.586029 -10,56.667023c0.184998,0.919006 -3.14801,23.140991 -3.14801,24.252014s-13.334015,18.888977 -13.334015,20c0,1.110962 -14.444,34.44397 -14.628998,33.526001c0.184998,0.917969 -6.481995,40.917969 -6.666992,40c0.184998,0.917969 1.29599,33.140991 1.110992,32.221985c0.184998,0.919006 11.296997,27.584961 11.110992,26.666992c0.186005,0.917969 16.85202,20.917969 16.667023,20c0.184998,0.917969 25.740997,22.028992 25.556,21.111023c0.184998,0.917969 14.628998,29.806946 14.444,28.888977c0.184998,0.917969 15.740997,43.140015 15.556,42.221985c0.184998,0.91803 4.628998,37.585022 4.444,36.666992c0.184998,0.91803 -3.14801,45.363037 -3.333008,44.444031c0.184998,0.919006 -27.592987,45.362976 -27.777985,44.44397c0.184998,0.919006 -43.14801,27.585999 -43.333008,26.666992c0.184998,0.919006 -64.26001,19.809021 -64.445007,18.889038c0.184998,0.919983 -56.481003,3.140015 -56.667007,2.219971c0.186005,0.920044 -68.702995,-13.523987 -68.887993,-14.441956c0.184998,0.917969 -59.814999,-36.859009 -60,-37.778015c0.185001,0.919006 -27.593,-62.415039 -27.778,-63.333008c0.184999,0.917969 3.519001,-59.082031 3.333,-60c0.184999,0.917969 31.296001,-42.414978 31.111,-43.333984c0.185001,0.919006 -6.480999,-30.192017 -6.667,-31.111023c0.185001,0.919006 25.740997,-11.302979 25.556,-12.221985c0.184998,0.919006 22.407997,-10.192993 22.222,-11.111023c0.185997,0.91803 12.407997,-30.192993 12.223,-31.110962c0.184998,0.917969 6.850998,-46.859009 6.666,-47.778015c0.184998,0.919006 -20.926003,-72.415039 -21.111,-73.333008c0.184998,0.917969 -6.481003,-9.082031 -6.667,-10" fill="url(#svg_7)"/>
  <path id="svg_2" d="m392.239014,858.606995c-3.358002,-29.289978 -13.377014,-45.188965 -16.393005,-52.5c-9.179993,-22.234985 -11.963989,-42.309998 -6.714996,-53.195007l-6.661987,-9.502991c-3.917023,3.171021 -8.278015,5.132996 -12.955017,5.604004c-0.705994,0.07196 -1.414001,0.112 -2.117004,0.110962c-21.649994,0.06604 -41.846985,-31.824951 -45.696991,-72.955994c-3.963989,-42.455994 10.998993,-78.69397 33.437012,-80.919983c0.678009,-0.070007 1.369995,-0.096985 2.050995,-0.105957c2.71701,-0.01001 5.402008,0.496948 8.036987,1.44696l2.617004,-6.372009c-0.572998,-0.219971 -1.156982,-0.414978 -1.691986,-0.722961c-11.44101,-6.614014 -10.761993,-30.110046 0.194,-56.986023c1.041992,-2.557983 4.190002,-12.075989 5.852997,-20.562012c1.519989,-7.708984 1.610992,-14.561005 1.610992,-14.561005c0.179993,-60.516968 -54.242004,-110.458984 -125.35199,-118.911987l-5.537003,-216.572998l0.013,-3.638l44.034012,-0.128006c0.86499,7.117004 3.152985,12.916 5.85498,14.022003c0,0 0,0 3.580017,-0.009003c11.201996,-0.028992 20.307983,-9.137985 20.339996,-20.339996c0.037994,-11.205002 -9.011993,-20.255997 -20.21701,-20.216995c-3.583984,0.003006 -3.583984,0.003006 -3.583984,0.003006c-2.707001,1.121994 -5.027008,6.936005 -5.94101,14.05899l-44.036011,0.134003l0.149002,-50.691002l44.034012,-0.135002c0.863983,7.122002 3.153992,12.923996 5.854004,14.019997c0,0 0,0 3.587982,-0.011002c11.199005,-0.031998 20.304016,-9.135994 20.33902,-20.338997c0.03299,-11.197998 -9.018005,-20.249001 -20.218018,-20.218002c-3.587006,0.013 -3.587006,0.013 -3.587006,0.013c-2.707001,1.115005 -5.026978,6.927002 -5.941986,14.059006l-44.033005,0.129997l0.104004,-34.076l4.080994,-0.017002l6.296997,-20.226999l-11.291,0.034l-5.174988,-28.311l-12.649002,1.391l-12.639999,-1.322l-5.345001,28.346l-11.294006,0.031l6.178009,20.198002l4.084,-0.02l-0.028,9.120998l-44.031006,0.132c-0.863998,-7.121998 -3.156006,-12.918999 -5.854004,-14.02c0,0 0,0 -3.587997,0.011002c-11.200996,0.035999 -20.305,9.140999 -20.341995,20.341999c-0.033005,11.197998 9.015999,20.247002 20.216995,20.217003c3.591003,-0.014 3.591003,-0.014 3.591003,-0.014c2.699997,-1.115005 5.024994,-6.926003 5.938004,-14.055l44.030991,-0.132004l-0.149994,50.689003l-44.033997,0.131996c-0.862,-7.119995 -3.159012,-12.922997 -5.85701,-14.022995c0,0 0,0 -3.584991,0.014c-11.201004,0.029999 -20.308006,9.138 -20.339005,20.338997c-0.034996,11.202003 9.017998,20.256004 20.218002,20.217995c3.580994,-0.006989 3.580994,-0.006989 3.580994,-0.006989c2.706009,-1.121002 5.028,-6.929001 5.940002,-14.057007l44.035995,-0.134003l-0.088989,28.598999l-6.859009,217.501022c-68.080994,10.959991 -119.627995,60.020996 -119.803993,118.760986c0,0 0.049,6.860992 1.516998,14.550018c1.617001,8.481995 4.699997,17.981995 5.723999,20.520996c10.814003,26.812988 11.346001,50.304016 -0.137001,56.98999c-0.532997,0.312988 -1.117996,0.512024 -1.693996,0.731018l2.578999,6.359985c2.640999,-0.963989 5.326004,-1.491028 8.044998,-1.497986c0.681,-0.002014 1.371002,0.036011 2.053001,0.096985c22.418999,2.088989 37.167,38.23999 32.946999,80.718018c-4.088997,41.154968 -24.479996,73.169983 -46.130997,73.231018c-0.706001,0 -1.405003,-0.025024 -2.118999,-0.097046c-4.683002,-0.435974 -9.018002,-2.376953 -12.920002,-5.527954l-6.720001,9.544983c5.182003,10.851013 2.268002,30.942993 -7.031998,53.237976c-3.057001,7.328003 -13.168001,23.295044 -16.709002,52.598999c-3.200999,26.527039 -0.171,57.710999 9.469,77.273987c25.032001,50.759033 94.793987,87.233032 177.214008,86.983032c82.421982,-0.244995 152.408981,-37.132996 177.740005,-88.047974c9.752991,-19.616028 12.96701,-50.819031 9.924011,-77.32605l0,-0.007996l-0.000031,0zm-177.241013,-70.398987l-1.776001,-385.984985c1.533997,0.179993 3.063995,0.378998 4.511993,0.570007l6.01001,385.385986l-8.746002,0.028992zm-34.429001,0.102966l8.307007,-384.790985c1.549988,-0.277985 3.241989,-0.570007 4.935989,-0.846985l-4.082993,385.609955l-9.160004,0.028015zm9.860992,209.683044c-63.897003,-3.585999 -120.313004,-32.302002 -140.099003,-72.426025c-6.917,-14.026001 -9.801998,-39.902954 -7.025002,-62.92395c2.386002,-19.775024 8.200001,-31.730042 12.056004,-39.632019c1.042,-2.130005 2.017998,-4.143005 2.850998,-6.13501c5.040001,-12.083008 9.916,-26.977966 11.251999,-41.723999c33.224998,-4.40802 60.303001,-43.464966 65.528008,-96.041992c2.445999,-24.616028 -0.481003,-48.651001 -8.240005,-67.679993c-6.389,-15.634033 -15.934998,-27.403992 -27.443001,-34.26001c1.568001,-14.989014 -1.646004,-33.219971 -9.795998,-53.460022c-0.736,-1.881958 -3.178001,-9.609009 -4.362999,-15.846985c-0.914001,-4.798004 -1.051003,-9.326996 -1.061005,-9.897003c0.255005,-44.588989 40.914001,-83.513 96.931999,-92.987l-8.278,383.34903l-4.440994,0.013l-0.016998,5.156982c14.140991,33.796997 22.524002,76.404968 22.388992,122.771973l-0.246994,81.723999l0.001999,-0.000977zm7.122009,-209.733032l4.095001,-386.661987c0.731003,-0.071991 1.403992,-0.125 1.949997,-0.136993c0.503998,-0.007019 1.134003,0.005981 1.798996,0.03598l1.778,386.726013l-9.621994,0.036987zm161.851013,136.380005c-20.613007,41.437988 -79.992004,71.005005 -146.223007,73.546021l0.247009,-81.981995c0.135986,-46.367004 8.778992,-89.02301 23.123993,-122.913025l0.014999,-5.14801l-4.996002,0.015015l-5.996002,-384.240021c58.571991,7.078003 102.625,47.114014 102.647003,93.298004c-0.019989,0.757019 -0.195007,5.208008 -1.128998,9.930023c-1.226013,6.257965 -3.718994,13.985016 -4.424988,15.801971c-8.290009,20.320007 -11.620026,38.60199 -10.150024,53.588989c-11.556,6.926025 -21.171997,18.75 -27.651001,34.427002c-7.869995,19.072021 -10.948975,43.124023 -8.638977,67.737c4.912994,52.539001 31.752991,91.434021 64.951996,95.643005c1.251007,14.737 6.031006,29.601013 11.002991,41.65802c0.825012,1.987 1.787018,3.992981 2.813019,6.119995c3.800995,7.877991 9.548981,19.788025 11.817993,39.557983c2.63501,23.004028 -0.408997,48.895996 -7.408997,62.965027l-0.001007,-0.005005z" fill="#000"/>
  <path id="svg_3" d="m157.503998,677.460022c0,0 6.298996,2.502014 5.910004,5.140015c-0.134995,0.911987 -1.678009,0.630005 -2.462997,1.062012c-0.577011,0.317993 -1.209,0.60498 -1.636002,1.117981c-0.612,0.734985 -1.136002,1.671021 -1.188004,2.640991c-0.042999,0.809998 -0.113998,1.929016 0.035004,2.630981c0.190002,0.894043 0.880005,1.981995 1.453995,2.677002c0.681,0.825012 1.882004,1.664001 2.804001,2.17804c1.055008,0.587952 2.505997,0.54895 3.695999,0.678955c1.23201,0.134033 2.403,-0.303955 3.563004,-0.756958c1.365005,-0.53302 2.785004,-1.270996 3.669998,-2.473999c0.692001,-0.940002 0.906998,-2.205994 1.042007,-3.380005c0.177994,-1.536987 0.006989,-3.121033 -0.317001,-4.632996c-0.320007,-1.494019 -0.737,-3.035034 -1.585007,-4.286011c-0.934998,-1.379028 -2.311996,-2.411011 -3.692001,-3.299011c-1.347992,-0.867981 -2.852997,-1.492981 -4.386002,-1.919006s-3.136002,-0.59198 -4.722992,-0.61499c-1.852005,-0.026978 -3.727005,0.124023 -5.531998,0.557983c-1.817001,0.437012 -3.581009,1.153015 -5.241013,2.038025c-1.537994,0.820007 -3.029999,1.789978 -4.309998,2.995972c-1.850998,1.744019 -3.356995,3.867004 -4.75499,6.018005c-1.029999,1.583984 -1.882004,3.29303 -2.64801,5.031006c-1.177994,2.674011 -2.296997,5.406982 -2.977997,8.26001c-1.065002,4.465027 -1.225998,9.112976 -1.688004,13.687988c-0.597992,5.916992 -1.401993,17.788025 -1.401993,17.788025l-3.333,1.169983l2.657997,1.439026c0,0 -0.427994,9.901978 -0.643005,14.852966c-0.192001,4.432983 0.040009,8.906982 -0.576996,13.298035c-0.445999,3.17395 -0.843994,6.406982 -1.617996,9.511963c-0.823006,3.299988 -2.247002,6.658997 -3.714005,9.804016c-1.022995,2.195007 -2.361,4.257019 -3.928001,6.072998c-1.584999,1.838013 -3.383995,3.547974 -5.443993,4.778015c-1.656006,0.987976 -3.558006,1.460999 -5.398003,1.993958c-0.817001,0.237 -2.494003,0.530029 -2.494003,0.530029s-3.592995,-4.085022 -3.833,-6.660034c-0.062996,-0.67395 -0.112,-1.519958 0.348999,-2c0.934006,-0.972961 3.038002,-0.429993 4.045006,-1.320984c1.019997,-0.903992 1.581001,-2.313965 1.953995,-3.651001c0.370003,-1.325012 0.480003,-2.778015 0.227005,-4.131958c-0.176003,-0.940002 -0.593002,-1.861023 -1.179001,-2.600037c-0.665001,-0.838989 -1.608002,-1.417969 -2.531998,-1.927979c-1.152,-0.635986 -2.391006,-1.192993 -3.685005,-1.375c-1.138,-0.161011 -2.341995,-0.096985 -3.435997,0.266968c-1.57,0.52301 -3.114998,1.403992 -4.225998,2.670044c-1.153,1.313965 -1.875,3.05896 -2.249001,4.791992c-0.395004,1.825012 -0.185005,3.758972 0.063995,5.610962c0.208,1.548035 0.552002,3.106995 1.187004,4.525024c0.599998,1.338989 1.440994,2.578979 2.423996,3.645996c1.092003,1.184998 2.431,2.114014 3.777,2.973022c1.693001,1.080994 3.417,2.270996 5.358002,2.714966c1.709,0.390015 3.514999,0.13501 5.248001,-0.112976c3.702995,-0.531006 7.5,-1.830017 10.904999,-3.432983c2.345001,-1.104004 4.848,-2.712036 6.538002,-4.124023c1.441994,-1.203979 2.652992,-2.359009 3.85099,-3.822998c1.632004,-1.994019 3.096008,-4.21698 4.368011,-6.475037c0.67099,-1.190979 1.190994,-2.439941 1.639999,-3.738953c0.916992,-2.650024 1.653992,-5.541992 2.229004,-8.294006c0.597992,-2.86499 0.845993,-5.661011 1.286987,-8.55603c0.60701,-3.993958 1.009003,-8.02301 1.266006,-12.057007c0.136993,-2.138 0.147003,-6.425964 0.147003,-6.425964l2.93399,-0.93103l-3.08699,-1.732971c0,0 0.459991,-12.885986 0.953995,-19.311035c0.393005,-5.108948 1.059998,-10.190979 1.596008,-15.28595c0.309998,-2.942993 0.317993,-5.938049 0.935989,-8.828003c0.542007,-2.532043 1.367996,-5.012024 2.410995,-7.369019c0.845001,-1.911011 1.769012,-3.838013 3.088013,-5.432983c1.087997,-1.315002 2.427002,-2.437012 3.880997,-3.290039c0.746002,-0.437988 2.421005,-0.898987 2.421005,-0.898987l0,0l0.002991,-0.002991z" fill="#000"/>
  <path id="svg_4" d="m247.951996,678.403015c0,0 -6.222992,2.461975 -5.837997,5.057007c0.132996,0.89801 1.658005,0.619995 2.432999,1.044983c0.570007,0.312988 1.194,0.595032 1.615997,1.100037c0.605011,0.722961 1.122009,1.643982 1.174011,2.597961c0.042999,0.796997 0.112991,1.89801 -0.035004,2.588989c-0.188004,0.880005 -0.869003,1.950012 -1.436996,2.634033c-0.673004,0.810974 -1.859009,1.637024 -2.770004,2.143005c-1.042007,0.578003 -2.475006,0.539978 -3.652008,0.667969c-1.216995,0.132019 -2.373993,-0.29895 -3.518997,-0.743958c-1.348999,-0.524048 -2.750992,-1.251038 -3.625992,-2.434998c-0.684006,-0.925049 -0.896011,-2.170044 -1.029999,-3.32605c-0.17601,-1.511963 -0.006012,-3.070984 0.312988,-4.557983c0.31601,-1.469971 0.728012,-2.985962 1.56601,-4.21698c0.923004,-1.356018 2.283997,-2.372986 3.647003,-3.246033c1.332001,-0.854004 2.819,-1.468994 4.332993,-1.888s3.098007,-0.583008 4.666,-0.60498c1.830002,-0.026001 3.682007,0.122009 5.464005,0.549011c1.794998,0.429993 3.537994,1.13501 5.176987,2.005005c1.52002,0.805969 2.993011,1.760986 4.257996,2.94696c1.828003,1.715027 3.31601,3.805054 4.697021,5.921021c1.016998,1.559021 1.858978,3.23999 2.615997,4.950012c1.164001,2.630005 2.268982,5.31897 2.941986,8.126953c1.052002,4.393066 1.210999,8.966003 1.667999,13.467041c0.589996,5.820984 1.38501,17.500977 1.38501,17.500977l3.292999,1.151001l-2.626007,1.416016c0,0 0.423004,9.742004 0.63501,14.612976c0.190002,4.361023 -0.040009,8.763 0.570007,13.083008c0.440979,3.122986 0.833984,6.30304 1.598999,9.359009c0.812988,3.247009 2.220001,6.552002 3.669006,9.64502c1.010986,2.158997 2.33197,4.187988 3.879974,5.974976c1.56601,1.808044 3.343018,3.491028 5.378021,4.700989c1.635986,0.972046 3.514984,1.438049 5.332001,1.962036c0.806976,0.232971 2.463989,0.520996 2.463989,0.520996s3.549988,-4.018982 3.786987,-6.552002c0.062012,-0.664001 0.111023,-1.495972 -0.345001,-1.968018c-0.922974,-0.958008 -3.001984,-0.422974 -3.995972,-1.299988c-1.008026,-0.888977 -1.562012,-2.276978 -1.931,-3.59198c-0.365021,-1.304016 -0.47403,-2.733032 -0.22403,-4.065002c0.174011,-0.924988 0.585022,-1.830994 1.165009,-2.557983c0.657013,-0.825012 1.588013,-1.39502 2.501007,-1.897034c1.138,-0.625977 2.362,-1.172974 3.639984,-1.35199c1.124023,-0.15802 2.314026,-0.096008 3.394012,0.263c1.550995,0.515015 3.078003,1.382019 4.174988,2.627014c1.139008,1.292969 1.85202,3.008972 2.222015,4.714966c0.389984,1.796021 0.183014,3.697998 -0.062988,5.520996c-0.206024,1.52301 -0.546021,3.057007 -1.172028,4.452026c-0.59198,1.317993 -1.423981,2.536987 -2.394989,3.586975c-1.07901,1.166016 -2.401001,2.080017 -3.730988,2.924988c-1.671997,1.063049 -3.376007,2.235046 -5.294006,2.671021c-1.687988,0.384033 -3.472015,0.132996 -5.18399,-0.112c-3.65802,-0.521973 -7.408997,-1.799988 -10.77301,-3.377014c-2.316986,-1.085999 -4.789001,-2.667969 -6.459015,-4.057007c-1.423981,-1.184998 -2.619995,-2.319946 -3.803986,-3.760986c-1.612,-1.961975 -3.058014,-4.148987 -4.315002,-6.370972c-0.662994,-1.171997 -1.175995,-2.401001 -1.619995,-3.67804c-0.906006,-2.607971 -1.634003,-5.451965 -2.201996,-8.159973c-0.591003,-2.817993 -0.835999,-5.570007 -1.270996,-8.41803c-0.600006,-3.928955 -0.997009,-7.893982 -1.251007,-11.862976c-0.13501,-2.104004 -0.144989,-6.322998 -0.144989,-6.322998l-2.899017,-0.916016l3.049988,-1.704956c0,0 -0.453979,-12.67804 -0.941986,-18.999023c-0.388,-5.027039 -1.046997,-10.027039 -1.576996,-15.040039c-0.306,-2.895935 -0.313995,-5.84198 -0.925018,-8.685974c-0.534973,-2.492004 -1.35199,-4.930969 -2.381989,-7.250977c-0.834991,-1.880005 -1.746994,-3.776001 -3.050995,-5.345032c-1.074997,-1.294006 -2.397995,-2.39801 -3.834,-3.237c-0.737,-0.430969 -2.391998,-0.88501 -2.391998,-0.88501l0,0l0.000992,-0.000977z" fill="#000"/>
 </g>
</svg>
